<mxfile host="app.diagrams.net" agent="Mozilla/5.0 (Windows NT 10.0; Win64; x64) AppleWebKit/537.36 (KHTML, like Gecko) Chrome/131.0.0.0 Safari/537.36" version="24.9.2">
  <diagram name="Страница — 1" id="hyrNnNCPwvGrasM0vbB1">
    <mxGraphModel dx="2261" dy="772" grid="0" gridSize="10" guides="1" tooltips="1" connect="1" arrows="1" fold="1" page="1" pageScale="1" pageWidth="827" pageHeight="1169" math="0" shadow="0">
      <root>
        <mxCell id="0" />
        <mxCell id="1" parent="0" />
        <mxCell id="ZJTuXpW1085Oz7KO1Jx3-1" value="организовать прием пищи для семьи" style="rounded=0;whiteSpace=wrap;html=1;" parent="1" vertex="1">
          <mxGeometry x="80" y="70" width="120" height="60" as="geometry" />
        </mxCell>
        <mxCell id="ZJTuXpW1085Oz7KO1Jx3-2" value="купить недостающие продукты" style="rounded=0;whiteSpace=wrap;html=1;" parent="1" vertex="1">
          <mxGeometry x="240" y="160" width="120" height="60" as="geometry" />
        </mxCell>
        <mxCell id="ZJTuXpW1085Oz7KO1Jx3-3" value="начать приготовление блюда" style="rounded=0;whiteSpace=wrap;html=1;" parent="1" vertex="1">
          <mxGeometry x="400" y="240" width="120" height="60" as="geometry" />
        </mxCell>
        <mxCell id="ZJTuXpW1085Oz7KO1Jx3-4" value="накрыть стол и начать прием пищи с семьей" style="rounded=0;whiteSpace=wrap;html=1;" parent="1" vertex="1">
          <mxGeometry x="565" y="325" width="120" height="60" as="geometry" />
        </mxCell>
        <mxCell id="ZJTuXpW1085Oz7KO1Jx3-5" value="прибрать стол" style="rounded=0;whiteSpace=wrap;html=1;" parent="1" vertex="1">
          <mxGeometry x="635" y="463" width="120" height="60" as="geometry" />
        </mxCell>
        <mxCell id="ZJTuXpW1085Oz7KO1Jx3-6" value="" style="endArrow=classic;html=1;rounded=0;" parent="1" edge="1">
          <mxGeometry width="50" height="50" relative="1" as="geometry">
            <mxPoint x="170" y="130" as="sourcePoint" />
            <mxPoint x="240" y="160" as="targetPoint" />
            <Array as="points">
              <mxPoint x="170" y="162" />
            </Array>
          </mxGeometry>
        </mxCell>
        <mxCell id="ZJTuXpW1085Oz7KO1Jx3-8" value="" style="endArrow=classic;html=1;rounded=0;entryX=0;entryY=0;entryDx=0;entryDy=0;" parent="1" target="ZJTuXpW1085Oz7KO1Jx3-3" edge="1">
          <mxGeometry width="50" height="50" relative="1" as="geometry">
            <mxPoint x="360" y="200" as="sourcePoint" />
            <mxPoint x="390" y="240" as="targetPoint" />
            <Array as="points">
              <mxPoint x="400" y="200" />
            </Array>
          </mxGeometry>
        </mxCell>
        <mxCell id="ZJTuXpW1085Oz7KO1Jx3-9" value="" style="endArrow=classic;html=1;rounded=0;entryX=0;entryY=0;entryDx=0;entryDy=0;exitX=1;exitY=1;exitDx=0;exitDy=0;" parent="1" source="ZJTuXpW1085Oz7KO1Jx3-3" target="ZJTuXpW1085Oz7KO1Jx3-4" edge="1">
          <mxGeometry width="50" height="50" relative="1" as="geometry">
            <mxPoint x="540" y="300" as="sourcePoint" />
            <mxPoint x="590" y="260" as="targetPoint" />
            <Array as="points">
              <mxPoint x="520" y="325" />
            </Array>
          </mxGeometry>
        </mxCell>
        <mxCell id="ZJTuXpW1085Oz7KO1Jx3-10" value="" style="endArrow=classic;html=1;rounded=0;entryX=0;entryY=0;entryDx=0;entryDy=0;exitX=0.583;exitY=1.067;exitDx=0;exitDy=0;exitPerimeter=0;" parent="1" source="ZJTuXpW1085Oz7KO1Jx3-4" target="ZJTuXpW1085Oz7KO1Jx3-5" edge="1">
          <mxGeometry width="50" height="50" relative="1" as="geometry">
            <mxPoint x="390" y="370" as="sourcePoint" />
            <mxPoint x="440" y="320" as="targetPoint" />
          </mxGeometry>
        </mxCell>
        <mxCell id="ZJTuXpW1085Oz7KO1Jx3-11" value="" style="endArrow=classic;html=1;rounded=0;entryX=0;entryY=1;entryDx=0;entryDy=0;exitX=0.429;exitY=0.033;exitDx=0;exitDy=0;exitPerimeter=0;" parent="1" source="ZJTuXpW1085Oz7KO1Jx3-13" target="ZJTuXpW1085Oz7KO1Jx3-1" edge="1">
          <mxGeometry width="50" height="50" relative="1" as="geometry">
            <mxPoint x="90" y="170" as="sourcePoint" />
            <mxPoint x="440" y="320" as="targetPoint" />
          </mxGeometry>
        </mxCell>
        <mxCell id="ZJTuXpW1085Oz7KO1Jx3-13" value="бюджет" style="text;html=1;align=center;verticalAlign=middle;resizable=0;points=[];autosize=1;strokeColor=none;fillColor=none;" parent="1" vertex="1">
          <mxGeometry x="5.5" y="130" width="70" height="30" as="geometry" />
        </mxCell>
        <mxCell id="ZJTuXpW1085Oz7KO1Jx3-14" value="предпочтения&lt;div&gt;в еде&lt;/div&gt;" style="text;html=1;align=center;verticalAlign=middle;resizable=0;points=[];autosize=1;strokeColor=none;fillColor=none;" parent="1" vertex="1">
          <mxGeometry x="60" y="3" width="100" height="40" as="geometry" />
        </mxCell>
        <mxCell id="ZJTuXpW1085Oz7KO1Jx3-15" value="" style="endArrow=classic;html=1;rounded=0;exitX=0.44;exitY=0.975;exitDx=0;exitDy=0;exitPerimeter=0;" parent="1" source="ZJTuXpW1085Oz7KO1Jx3-14" edge="1">
          <mxGeometry width="50" height="50" relative="1" as="geometry">
            <mxPoint x="390" y="-30" as="sourcePoint" />
            <mxPoint x="104" y="69" as="targetPoint" />
          </mxGeometry>
        </mxCell>
        <mxCell id="ZJTuXpW1085Oz7KO1Jx3-16" value="ближайший&lt;div&gt;магазин&lt;/div&gt;" style="text;html=1;align=center;verticalAlign=middle;resizable=0;points=[];autosize=1;strokeColor=none;fillColor=none;" parent="1" vertex="1">
          <mxGeometry x="222" y="95" width="90" height="40" as="geometry" />
        </mxCell>
        <mxCell id="ZJTuXpW1085Oz7KO1Jx3-17" value="" style="endArrow=classic;html=1;rounded=0;exitX=0.386;exitY=1;exitDx=0;exitDy=0;exitPerimeter=0;entryX=0.142;entryY=-0.067;entryDx=0;entryDy=0;entryPerimeter=0;" parent="1" source="ZJTuXpW1085Oz7KO1Jx3-16" target="ZJTuXpW1085Oz7KO1Jx3-2" edge="1">
          <mxGeometry width="50" height="50" relative="1" as="geometry">
            <mxPoint x="260" y="150" as="sourcePoint" />
            <mxPoint x="310" y="140" as="targetPoint" />
            <Array as="points" />
          </mxGeometry>
        </mxCell>
        <mxCell id="ZJTuXpW1085Oz7KO1Jx3-18" value="машина&lt;div&gt;мужчины&lt;/div&gt;" style="text;html=1;align=center;verticalAlign=middle;resizable=0;points=[];autosize=1;strokeColor=none;fillColor=none;" parent="1" vertex="1">
          <mxGeometry x="254" y="43" width="70" height="40" as="geometry" />
        </mxCell>
        <mxCell id="ZJTuXpW1085Oz7KO1Jx3-19" value="" style="endArrow=classic;html=1;rounded=0;exitX=0.443;exitY=0.95;exitDx=0;exitDy=0;exitPerimeter=0;entryX=0.711;entryY=0.075;entryDx=0;entryDy=0;entryPerimeter=0;" parent="1" source="ZJTuXpW1085Oz7KO1Jx3-18" target="ZJTuXpW1085Oz7KO1Jx3-16" edge="1">
          <mxGeometry width="50" height="50" relative="1" as="geometry">
            <mxPoint x="250" y="90" as="sourcePoint" />
            <mxPoint x="300" y="40" as="targetPoint" />
          </mxGeometry>
        </mxCell>
        <mxCell id="ZJTuXpW1085Oz7KO1Jx3-20" value="выбранные&amp;nbsp;&lt;div&gt;продукты&lt;/div&gt;" style="text;html=1;align=center;verticalAlign=middle;resizable=0;points=[];autosize=1;strokeColor=none;fillColor=none;rotation=0;" parent="1" vertex="1">
          <mxGeometry x="130" y="218" width="90" height="40" as="geometry" />
        </mxCell>
        <mxCell id="ZJTuXpW1085Oz7KO1Jx3-21" value="" style="endArrow=classic;startArrow=classic;html=1;rounded=0;entryX=0;entryY=1;entryDx=0;entryDy=0;exitX=0.5;exitY=1;exitDx=0;exitDy=0;" parent="1" source="ZJTuXpW1085Oz7KO1Jx3-1" target="ZJTuXpW1085Oz7KO1Jx3-2" edge="1">
          <mxGeometry width="50" height="50" relative="1" as="geometry">
            <mxPoint x="142" y="123" as="sourcePoint" />
            <mxPoint x="195" y="190" as="targetPoint" />
            <Array as="points">
              <mxPoint x="140" y="220" />
            </Array>
          </mxGeometry>
        </mxCell>
        <mxCell id="ZJTuXpW1085Oz7KO1Jx3-22" value="банковская карта&amp;nbsp;&lt;div&gt;или&amp;nbsp;&lt;/div&gt;&lt;div&gt;бумажные деньги&lt;/div&gt;" style="text;html=1;align=center;verticalAlign=middle;resizable=0;points=[];autosize=1;strokeColor=none;fillColor=none;" parent="1" vertex="1">
          <mxGeometry x="227" y="258" width="120" height="60" as="geometry" />
        </mxCell>
        <mxCell id="ZJTuXpW1085Oz7KO1Jx3-23" value="" style="endArrow=classic;html=1;rounded=0;exitX=0.608;exitY=0.083;exitDx=0;exitDy=0;exitPerimeter=0;" parent="1" source="ZJTuXpW1085Oz7KO1Jx3-22" edge="1">
          <mxGeometry width="50" height="50" relative="1" as="geometry">
            <mxPoint x="250" y="270" as="sourcePoint" />
            <mxPoint x="300" y="220" as="targetPoint" />
          </mxGeometry>
        </mxCell>
        <mxCell id="ZJTuXpW1085Oz7KO1Jx3-24" value="женщина" style="text;html=1;align=center;verticalAlign=middle;resizable=0;points=[];autosize=1;strokeColor=none;fillColor=none;" parent="1" vertex="1">
          <mxGeometry x="407" y="375" width="69" height="26" as="geometry" />
        </mxCell>
        <mxCell id="ZJTuXpW1085Oz7KO1Jx3-25" value="" style="endArrow=classic;html=1;rounded=0;entryX=0.536;entryY=0.154;entryDx=0;entryDy=0;entryPerimeter=0;exitX=0.342;exitY=0.95;exitDx=0;exitDy=0;exitPerimeter=0;" parent="1" source="ZJTuXpW1085Oz7KO1Jx3-3" target="ZJTuXpW1085Oz7KO1Jx3-24" edge="1">
          <mxGeometry width="50" height="50" relative="1" as="geometry">
            <mxPoint x="387" y="368" as="sourcePoint" />
            <mxPoint x="437" y="318" as="targetPoint" />
          </mxGeometry>
        </mxCell>
        <mxCell id="ZJTuXpW1085Oz7KO1Jx3-26" value="продукты" style="text;html=1;align=center;verticalAlign=middle;resizable=0;points=[];autosize=1;strokeColor=none;fillColor=none;rotation=0;" parent="1" vertex="1">
          <mxGeometry x="375" y="146" width="70" height="26" as="geometry" />
        </mxCell>
        <mxCell id="ZJTuXpW1085Oz7KO1Jx3-27" value="" style="endArrow=classic;startArrow=classic;html=1;rounded=0;exitX=1;exitY=0.25;exitDx=0;exitDy=0;" parent="1" source="ZJTuXpW1085Oz7KO1Jx3-2" edge="1">
          <mxGeometry width="50" height="50" relative="1" as="geometry">
            <mxPoint x="397" y="233" as="sourcePoint" />
            <mxPoint x="449" y="239" as="targetPoint" />
            <Array as="points">
              <mxPoint x="449" y="175" />
            </Array>
          </mxGeometry>
        </mxCell>
        <mxCell id="ZJTuXpW1085Oz7KO1Jx3-28" value="книжка&amp;nbsp;&lt;div&gt;с рецептами&amp;nbsp;&lt;/div&gt;" style="text;html=1;align=center;verticalAlign=middle;resizable=0;points=[];autosize=1;strokeColor=none;fillColor=none;" parent="1" vertex="1">
          <mxGeometry x="464" y="119" width="91" height="41" as="geometry" />
        </mxCell>
        <mxCell id="ZJTuXpW1085Oz7KO1Jx3-29" value="" style="endArrow=classic;html=1;rounded=0;" parent="1" edge="1">
          <mxGeometry width="50" height="50" relative="1" as="geometry">
            <mxPoint x="482" y="155" as="sourcePoint" />
            <mxPoint x="482" y="236" as="targetPoint" />
            <Array as="points" />
          </mxGeometry>
        </mxCell>
        <mxCell id="ZJTuXpW1085Oz7KO1Jx3-30" value="выбранное&lt;br&gt;блюдо" style="text;html=1;align=center;verticalAlign=middle;resizable=0;points=[];autosize=1;strokeColor=none;fillColor=none;" parent="1" vertex="1">
          <mxGeometry x="485" y="5" width="80" height="41" as="geometry" />
        </mxCell>
        <mxCell id="ZJTuXpW1085Oz7KO1Jx3-31" value="" style="endArrow=classic;html=1;rounded=0;entryX=0.692;entryY=0.098;entryDx=0;entryDy=0;entryPerimeter=0;" parent="1" source="ZJTuXpW1085Oz7KO1Jx3-30" target="ZJTuXpW1085Oz7KO1Jx3-28" edge="1">
          <mxGeometry width="50" height="50" relative="1" as="geometry">
            <mxPoint x="601" y="157" as="sourcePoint" />
            <mxPoint x="651" y="107" as="targetPoint" />
          </mxGeometry>
        </mxCell>
        <mxCell id="ZJTuXpW1085Oz7KO1Jx3-32" value="" style="endArrow=classic;startArrow=classic;html=1;rounded=0;entryX=0.038;entryY=0.366;entryDx=0;entryDy=0;entryPerimeter=0;exitX=0.98;exitY=0.45;exitDx=0;exitDy=0;exitPerimeter=0;" parent="1" source="ZJTuXpW1085Oz7KO1Jx3-14" target="ZJTuXpW1085Oz7KO1Jx3-30" edge="1">
          <mxGeometry width="50" height="50" relative="1" as="geometry">
            <mxPoint x="417" y="76" as="sourcePoint" />
            <mxPoint x="467" y="26" as="targetPoint" />
            <Array as="points" />
          </mxGeometry>
        </mxCell>
        <mxCell id="ZJTuXpW1085Oz7KO1Jx3-33" value="приборы для&amp;nbsp;&lt;div&gt;приготовления&lt;/div&gt;" style="text;html=1;align=center;verticalAlign=middle;resizable=0;points=[];autosize=1;strokeColor=none;fillColor=none;" parent="1" vertex="1">
          <mxGeometry x="505.5" y="177" width="100" height="41" as="geometry" />
        </mxCell>
        <mxCell id="ZJTuXpW1085Oz7KO1Jx3-34" value="" style="endArrow=classic;html=1;rounded=0;exitX=0.33;exitY=0.927;exitDx=0;exitDy=0;exitPerimeter=0;" parent="1" source="ZJTuXpW1085Oz7KO1Jx3-33" edge="1">
          <mxGeometry width="50" height="50" relative="1" as="geometry">
            <mxPoint x="530" y="285" as="sourcePoint" />
            <mxPoint x="525" y="245" as="targetPoint" />
          </mxGeometry>
        </mxCell>
        <mxCell id="ZJTuXpW1085Oz7KO1Jx3-35" value="женщина" style="text;html=1;align=center;verticalAlign=middle;resizable=0;points=[];autosize=1;strokeColor=none;fillColor=none;" parent="1" vertex="1">
          <mxGeometry x="75.5" y="261" width="69" height="26" as="geometry" />
        </mxCell>
        <mxCell id="ZJTuXpW1085Oz7KO1Jx3-36" value="" style="endArrow=classic;html=1;rounded=0;" parent="1" edge="1">
          <mxGeometry width="50" height="50" relative="1" as="geometry">
            <mxPoint x="116" y="133" as="sourcePoint" />
            <mxPoint x="118" y="262" as="targetPoint" />
          </mxGeometry>
        </mxCell>
        <mxCell id="ZJTuXpW1085Oz7KO1Jx3-37" value="женщина" style="text;html=1;align=center;verticalAlign=middle;resizable=0;points=[];autosize=1;strokeColor=none;fillColor=none;" parent="1" vertex="1">
          <mxGeometry x="521" y="448" width="69" height="26" as="geometry" />
        </mxCell>
        <mxCell id="ZJTuXpW1085Oz7KO1Jx3-38" value="" style="endArrow=classic;html=1;rounded=0;entryX=0.768;entryY=-0.038;entryDx=0;entryDy=0;entryPerimeter=0;exitX=0.1;exitY=0.983;exitDx=0;exitDy=0;exitPerimeter=0;" parent="1" source="ZJTuXpW1085Oz7KO1Jx3-4" target="ZJTuXpW1085Oz7KO1Jx3-37" edge="1">
          <mxGeometry width="50" height="50" relative="1" as="geometry">
            <mxPoint x="536" y="453" as="sourcePoint" />
            <mxPoint x="586" y="403" as="targetPoint" />
          </mxGeometry>
        </mxCell>
        <mxCell id="ZJTuXpW1085Oz7KO1Jx3-39" value="столовые&amp;nbsp;&lt;div&gt;приборы&lt;/div&gt;" style="text;html=1;align=center;verticalAlign=middle;resizable=0;points=[];autosize=1;strokeColor=none;fillColor=none;" parent="1" vertex="1">
          <mxGeometry x="546" y="255.5" width="75" height="41" as="geometry" />
        </mxCell>
        <mxCell id="ZJTuXpW1085Oz7KO1Jx3-40" value="" style="endArrow=classic;html=1;rounded=0;" parent="1" source="ZJTuXpW1085Oz7KO1Jx3-39" edge="1">
          <mxGeometry width="50" height="50" relative="1" as="geometry">
            <mxPoint x="634" y="320" as="sourcePoint" />
            <mxPoint x="583" y="329" as="targetPoint" />
          </mxGeometry>
        </mxCell>
        <mxCell id="ZJTuXpW1085Oz7KO1Jx3-41" value="готовое&amp;nbsp;&lt;div&gt;блюдо&lt;/div&gt;" style="text;html=1;align=center;verticalAlign=middle;resizable=0;points=[];autosize=1;strokeColor=none;fillColor=none;" parent="1" vertex="1">
          <mxGeometry x="483" y="349" width="63" height="41" as="geometry" />
        </mxCell>
        <mxCell id="ZJTuXpW1085Oz7KO1Jx3-42" value="" style="endArrow=classic;startArrow=classic;html=1;rounded=0;exitX=0.75;exitY=1;exitDx=0;exitDy=0;" parent="1" source="ZJTuXpW1085Oz7KO1Jx3-3" edge="1">
          <mxGeometry width="50" height="50" relative="1" as="geometry">
            <mxPoint x="472" y="371" as="sourcePoint" />
            <mxPoint x="567" y="353" as="targetPoint" />
            <Array as="points">
              <mxPoint x="493" y="353" />
            </Array>
          </mxGeometry>
        </mxCell>
        <mxCell id="ZJTuXpW1085Oz7KO1Jx3-44" value="вся семья" style="text;html=1;align=center;verticalAlign=middle;resizable=0;points=[];autosize=1;strokeColor=none;fillColor=none;" parent="1" vertex="1">
          <mxGeometry x="600" y="592.5" width="74" height="26" as="geometry" />
        </mxCell>
        <mxCell id="ZJTuXpW1085Oz7KO1Jx3-45" value="" style="endArrow=classic;html=1;rounded=0;exitX=0;exitY=1;exitDx=0;exitDy=0;" parent="1" source="ZJTuXpW1085Oz7KO1Jx3-5" target="ZJTuXpW1085Oz7KO1Jx3-44" edge="1">
          <mxGeometry width="50" height="50" relative="1" as="geometry">
            <mxPoint x="649" y="592" as="sourcePoint" />
            <mxPoint x="699" y="542" as="targetPoint" />
          </mxGeometry>
        </mxCell>
        <mxCell id="ZJTuXpW1085Oz7KO1Jx3-46" value="помыть столовые&lt;div&gt;приборы&lt;/div&gt;" style="text;html=1;align=center;verticalAlign=middle;resizable=0;points=[];autosize=1;strokeColor=none;fillColor=none;" parent="1" vertex="1">
          <mxGeometry x="679" y="585" width="116" height="41" as="geometry" />
        </mxCell>
        <mxCell id="ZJTuXpW1085Oz7KO1Jx3-47" value="" style="endArrow=classic;html=1;rounded=0;entryX=0.422;entryY=0.024;entryDx=0;entryDy=0;entryPerimeter=0;exitX=0.75;exitY=1;exitDx=0;exitDy=0;" parent="1" source="ZJTuXpW1085Oz7KO1Jx3-5" target="ZJTuXpW1085Oz7KO1Jx3-46" edge="1">
          <mxGeometry width="50" height="50" relative="1" as="geometry">
            <mxPoint x="698" y="601" as="sourcePoint" />
            <mxPoint x="748" y="551" as="targetPoint" />
          </mxGeometry>
        </mxCell>
        <mxCell id="ZJTuXpW1085Oz7KO1Jx3-48" value="голодная&lt;div&gt;семья&lt;/div&gt;" style="text;html=1;align=center;verticalAlign=middle;resizable=0;points=[];autosize=1;strokeColor=none;fillColor=none;" parent="1" vertex="1">
          <mxGeometry x="-4" y="73" width="69" height="41" as="geometry" />
        </mxCell>
        <mxCell id="ZJTuXpW1085Oz7KO1Jx3-49" value="" style="endArrow=classic;html=1;rounded=0;" parent="1" source="ZJTuXpW1085Oz7KO1Jx3-48" edge="1">
          <mxGeometry width="50" height="50" relative="1" as="geometry">
            <mxPoint x="28" y="148" as="sourcePoint" />
            <mxPoint x="78" y="98" as="targetPoint" />
          </mxGeometry>
        </mxCell>
        <mxCell id="ZJTuXpW1085Oz7KO1Jx3-50" value="сытая&amp;nbsp;&lt;div&gt;семья&lt;/div&gt;" style="text;html=1;align=center;verticalAlign=middle;resizable=0;points=[];autosize=1;strokeColor=none;fillColor=none;" parent="1" vertex="1">
          <mxGeometry x="731" y="393" width="55" height="41" as="geometry" />
        </mxCell>
        <mxCell id="ZJTuXpW1085Oz7KO1Jx3-51" value="" style="endArrow=classic;html=1;rounded=0;exitX=0.255;exitY=0.927;exitDx=0;exitDy=0;exitPerimeter=0;" parent="1" source="ZJTuXpW1085Oz7KO1Jx3-50" edge="1">
          <mxGeometry width="50" height="50" relative="1" as="geometry">
            <mxPoint x="695" y="461" as="sourcePoint" />
            <mxPoint x="745" y="463" as="targetPoint" />
          </mxGeometry>
        </mxCell>
      </root>
    </mxGraphModel>
  </diagram>
</mxfile>
